<svg width="55" height="55" viewBox="0 0 55 55" fill="none" xmlns="http://www.w3.org/2000/svg">
<path d="M35.9375 27.5C35.6451 27.5 35.3301 27.455 35.0376 27.365C34.478 27.176 33.9922 26.8157 33.6489 26.3351C33.3056 25.8545 33.1223 25.2781 33.125 24.6875V20.7275C29.975 20.435 27.5 17.78 27.5 14.5625V6.6875C27.5 3.2675 30.2676 0.5 33.6875 0.5H48.3125C51.7326 0.5 54.5 3.2675 54.5 6.6875V14.5625C54.5 17.9825 51.7326 20.75 48.3125 20.75H42.4175L38.1875 26.375C37.6475 27.095 36.8151 27.5 35.9375 27.5ZM17.3751 33.125C14.8407 33.1191 12.4119 32.1097 10.6199 30.3176C8.82788 28.5256 7.81849 26.0968 7.81255 23.5625C7.81849 21.0282 8.82788 18.5994 10.6199 16.8074C12.4119 15.0153 14.8407 14.0059 17.3751 14C19.9094 14.0059 22.3382 15.0153 24.1302 16.8074C25.9222 18.5994 26.9316 21.0282 26.9375 23.5625C26.9316 26.0968 25.9222 28.5256 24.1302 30.3176C22.3382 32.1097 19.9094 33.1191 17.3751 33.125ZM3.8098 49.82C6.7573 52.925 11.3248 54.5 17.3773 54.5C23.4298 54.5 27.9973 52.925 30.9448 49.82C34.3693 46.1975 34.259 41.8257 34.2523 41.531V41.5175C34.2523 38.75 32.0023 36.5 29.2348 36.5H5.5198C2.7523 36.5 0.502301 38.75 0.502301 41.4275V41.4567C0.493301 41.8842 0.407802 46.22 3.8098 49.82Z" fill="black"/>
</svg>
