<svg width="49" height="50" viewBox="0 0 49 50" fill="none" xmlns="http://www.w3.org/2000/svg">
<path d="M10.1854 22.963C9.06504 22.963 8.10559 22.5638 7.30707 21.7653C6.50855 20.9668 6.10997 20.008 6.11133 18.889V10.7408C6.11133 9.62046 6.51059 8.66101 7.30911 7.86249C8.10763 7.06397 9.06639 6.66539 10.1854 6.66675H18.3336C19.4539 6.66675 20.4134 7.06601 21.2119 7.86453C22.0104 8.66305 22.409 9.62181 22.4076 10.7408V18.889C22.4076 20.0093 22.0084 20.9688 21.2099 21.7673C20.4113 22.5658 19.4526 22.9644 18.3336 22.963H10.1854ZM10.1854 43.3334C9.06504 43.3334 8.10559 42.9342 7.30707 42.1356C6.50855 41.3371 6.10997 40.3784 6.11133 39.2593V31.1112C6.11133 29.9908 6.51059 29.0314 7.30911 28.2329C8.10763 27.4343 9.06639 27.0358 10.1854 27.0371H18.3336C19.4539 27.0371 20.4134 27.4364 21.2119 28.2349C22.0104 29.0334 22.409 29.9922 22.4076 31.1112V39.2593C22.4076 40.3797 22.0084 41.3392 21.2099 42.1377C20.4113 42.9362 19.4526 43.3348 18.3336 43.3334H10.1854ZM30.5558 22.963C29.4354 22.963 28.476 22.5638 27.6774 21.7653C26.8789 20.9668 26.4803 20.008 26.4817 18.889V10.7408C26.4817 9.62046 26.881 8.66101 27.6795 7.86249C28.478 7.06397 29.4368 6.66539 30.5558 6.66675H38.7039C39.8243 6.66675 40.7837 7.06601 41.5823 7.86453C42.3808 8.66305 42.7794 9.62181 42.778 10.7408V18.889C42.778 20.0093 42.3787 20.9688 41.5802 21.7673C40.7817 22.5658 39.8229 22.9644 38.7039 22.963H30.5558ZM30.5558 43.3334C29.4354 43.3334 28.476 42.9342 27.6774 42.1356C26.8789 41.3371 26.4803 40.3784 26.4817 39.2593V31.1112C26.4817 29.9908 26.881 29.0314 27.6795 28.2329C28.478 27.4343 29.4368 27.0358 30.5558 27.0371H38.7039C39.8243 27.0371 40.7837 27.4364 41.5823 28.2349C42.3808 29.0334 42.7794 29.9922 42.778 31.1112V39.2593C42.778 40.3797 42.3787 41.3392 41.5802 42.1377C40.7817 42.9362 39.8229 43.3348 38.7039 43.3334H30.5558Z" fill="black"/>
</svg>
