<svg width="20" height="20" viewBox="0 0 20 20" fill="none" xmlns="http://www.w3.org/2000/svg">
<path d="M7.27083 19.3229L6.375 19.9167L3.25 17.8333L0.125 19.9167V0.125H18.875V7.625C17.9375 7.22917 16.7917 7.41667 16 8.19792L7.27083 16.9271V19.3229ZM9.35417 17.7917L15.75 11.4062L17.8646 13.5312L11.4792 19.9167H9.35417V17.7917ZM18.2396 9.65625C18.2165 9.6298 18.1881 9.6085 18.1562 9.59375C18.0599 9.52629 17.9434 9.49366 17.826 9.50123C17.7086 9.5088 17.5973 9.55613 17.5104 9.63542L17.4896 9.65625L16.4688 10.6771L18.5937 12.8021L19.6146 11.7812C19.8229 11.5833 19.8229 11.2396 19.6146 11.0312L18.2396 9.65625Z" fill="#2E0052"/>
</svg>
