<svg width="14" height="14" viewBox="0 0 14 14" fill="none" xmlns="http://www.w3.org/2000/svg">
<path d="M4.99362 13.3169L4.3676 13.7288L2.1838 12.2837L0 13.7288V0H13.1028V5.2025C12.4477 4.92792 11.6469 5.05798 11.0937 5.59991L4.99362 11.655V13.3169ZM6.44948 12.2548L10.919 7.82542L12.3967 9.29946L7.93447 13.7288H6.44948V12.2548ZM12.6588 6.61151C12.6426 6.59316 12.6228 6.57839 12.6005 6.56815C12.5332 6.52136 12.4518 6.49872 12.3697 6.50398C12.2877 6.50923 12.2099 6.54206 12.1492 6.59706L12.1346 6.61151L11.4213 7.31963L12.9062 8.79367L13.6196 8.08555C13.7652 7.94826 13.7652 7.70981 13.6196 7.5653L12.6588 6.61151Z" fill="black"/>
</svg>
