<svg width="46" height="36" viewBox="0 0 46 36" fill="none" xmlns="http://www.w3.org/2000/svg">
<path d="M45.9443 3.00038C45.946 2.29371 45.7068 1.70038 45.2268 1.22038C44.7468 0.740375 44.1527 0.500375 43.4443 0.500375H15.9443C15.2377 0.498708 14.6443 0.737875 14.1643 1.21788C13.6843 1.69788 13.4443 2.29204 13.4443 3.00038H45.9443ZM45.9443 3.00038V8.00038C45.9443 8.70871 45.7043 9.30288 45.2243 9.78288C44.7443 10.2629 44.151 10.502 43.4443 10.5004L45.9443 3.00038ZM1.72212 8.00221V8.00038V3.00038C1.72212 2.48833 1.8871 2.09507 2.21432 1.76785C2.54144 1.44072 2.93328 1.27695 3.44251 1.27815V1.27815H3.44434H8.44434C8.95639 1.27815 9.34965 1.44313 9.67687 1.77035C10.004 2.09747 10.1678 2.48931 10.1666 2.99854V3.00038V8.00038C10.1666 8.51243 10.0016 8.90569 9.67437 9.23291C9.34725 9.56003 8.95541 9.7238 8.44618 9.7226H8.44434H3.44434C2.93229 9.7226 2.53903 9.55762 2.21182 9.2304L1.66966 9.77256L2.21182 9.2304C1.88469 8.90328 1.72092 8.51144 1.72212 8.00221ZM14.2221 8.00221V8.00038V3.00038C14.2221 2.48833 14.3871 2.09507 14.7143 1.76785C15.0414 1.44072 15.4333 1.27695 15.9425 1.27815H15.9443H43.4443C43.9564 1.27815 44.3497 1.44313 44.6769 1.77035C45.004 2.09747 45.1678 2.48931 45.1666 2.99854V3.00038V8.00038C45.1666 8.51243 45.0016 8.90569 44.6744 9.23291C44.3472 9.56003 43.9554 9.7238 43.4462 9.7226H43.4443H15.9443C15.4323 9.7226 15.039 9.55762 14.7118 9.2304C14.3847 8.90328 14.2209 8.51144 14.2221 8.00221ZM14.2221 20.5022V20.5004V15.5004C14.2221 14.9883 14.3871 14.5951 14.7143 14.2678C15.0414 13.9407 15.4333 13.7769 15.9425 13.7782H15.9443H43.4443C43.9564 13.7782 44.3497 13.9431 44.6769 14.2703C45.004 14.5975 45.1678 14.9893 45.1666 15.4985V15.5004V20.5004C45.1666 21.0124 45.0016 21.4057 44.6744 21.7329C44.3472 22.06 43.9554 22.2238 43.4462 22.2226H43.4443H15.9443C15.4323 22.2226 15.039 22.0576 14.7118 21.7304C14.3847 21.4033 14.2209 21.0114 14.2221 20.5022ZM1.72212 20.5022V20.5004V15.5004C1.72212 14.9883 1.8871 14.5951 2.21432 14.2678L1.66434 13.7179L2.21432 14.2678C2.54144 13.9407 2.93328 13.7769 3.44251 13.7782H3.44434H8.44434C8.95639 13.7782 9.34965 13.9431 9.67687 14.2703C10.004 14.5975 10.1678 14.9893 10.1666 15.4985V15.5004V20.5004C10.1666 21.0124 10.0016 21.4057 9.67437 21.7329C9.34725 22.06 8.95541 22.2238 8.44618 22.2226H8.44434H3.44434C2.93229 22.2226 2.53903 22.0576 2.21182 21.7304C1.88469 21.4033 1.72092 21.0114 1.72212 20.5022ZM14.2221 33.0022V33.0004V28.0004C14.2221 27.4883 14.3871 27.0951 14.7143 26.7679C15.0414 26.4407 15.4333 26.277 15.9425 26.2782H15.9443H43.4443C43.9564 26.2782 44.3497 26.4431 44.6769 26.7704C45.004 27.0975 45.1678 27.4893 45.1666 27.9985V28.0004V33.0004C45.1666 33.5124 45.0016 33.9057 44.6744 34.2329C44.3472 34.56 43.9554 34.7238 43.4462 34.7226H43.4443H15.9443C15.4323 34.7226 15.039 34.5576 14.7118 34.2304C14.3847 33.9033 14.2209 33.5114 14.2221 33.0022ZM1.72212 33.0022V33.0004V28.0004C1.72212 27.4883 1.8871 27.0951 2.21432 26.7679L1.67113 26.2247L2.21432 26.7678C2.54144 26.4407 2.93328 26.277 3.44251 26.2782H3.44434H8.44434C8.95639 26.2782 9.34965 26.4431 9.67687 26.7704C10.004 27.0975 10.1678 27.4893 10.1666 27.9985V28.0004V33.0004C10.1666 33.5124 10.0016 33.9057 9.67437 34.2329C9.34725 34.56 8.95541 34.7238 8.44618 34.7226H8.44434H3.44434C2.93229 34.7226 2.53903 34.5576 2.21182 34.2304C1.88469 33.9033 1.72092 33.5114 1.72212 33.0022ZM13.4443 20.5004V15.5004C13.4443 14.792 13.6843 14.1979 14.1643 13.7179C14.6443 13.2379 15.2377 12.9987 15.9443 13.0004L13.4443 20.5004Z" fill="white" stroke="black" stroke-width="1.55556"/>
</svg>
