<svg width="26" height="26" viewBox="0 0 26 26" fill="none" xmlns="http://www.w3.org/2000/svg">
<path d="M15.8774 1.95642C15.9035 1.85821 15.9488 1.76612 16.0106 1.68542C16.0724 1.60472 16.1495 1.53699 16.2375 1.48611C16.3255 1.43523 16.4227 1.40219 16.5235 1.38889C16.6242 1.37558 16.7266 1.38227 16.8248 1.40857C18.6929 1.89586 20.3973 2.87238 21.7625 4.23752C23.1276 5.60267 24.1041 7.30708 24.5914 9.17517C24.6177 9.27336 24.6244 9.37576 24.6111 9.47654C24.5978 9.57731 24.5648 9.67447 24.5139 9.76246C24.463 9.85046 24.3953 9.92756 24.3146 9.98936C24.2339 10.0512 24.1418 10.0965 24.0436 10.1226C23.9784 10.14 23.9112 10.1487 23.8438 10.1484C23.6734 10.1485 23.5077 10.0923 23.3725 9.98861C23.2373 9.88488 23.1401 9.73941 23.0961 9.57478C22.6778 7.97014 21.8391 6.50609 20.6665 5.33351C19.4939 4.16093 18.0298 3.32224 16.4252 2.90389C16.327 2.8777 16.2349 2.83241 16.1542 2.77061C16.0735 2.70881 16.0058 2.63171 15.9549 2.54371C15.904 2.45572 15.871 2.35856 15.8577 2.25779C15.8444 2.15701 15.8511 2.05461 15.8774 1.95642ZM15.394 7.02889C17.2695 7.52904 18.471 8.73045 18.9711 10.606C19.0151 10.7707 19.1123 10.9161 19.2475 11.0199C19.3827 11.1236 19.5484 11.1798 19.7188 11.1797C19.7862 11.1799 19.8534 11.1712 19.9186 11.1539C20.0168 11.1277 20.1089 11.0824 20.1896 11.0206C20.2703 10.9588 20.338 10.8817 20.3889 10.7937C20.4398 10.7057 20.4728 10.6086 20.4861 10.5078C20.4994 10.407 20.4927 10.3046 20.4664 10.2064C19.8219 7.79459 18.2054 6.1781 15.7936 5.53357C15.6954 5.50733 15.593 5.50069 15.4922 5.51402C15.3915 5.52735 15.2944 5.5604 15.2064 5.61127C15.0287 5.71402 14.8991 5.88313 14.8461 6.08142C14.7931 6.27972 14.8211 6.49094 14.9238 6.66862C15.0265 6.8463 15.1957 6.97589 15.394 7.02889ZM25.6343 19.5328C25.4134 21.2179 24.5865 22.7649 23.308 23.8847C22.0295 25.0044 20.387 25.6203 18.6875 25.6172C8.59415 25.6172 0.382825 17.4058 0.382825 7.31248C0.379569 5.61355 0.994897 3.97153 2.11387 2.69315C3.23284 1.41476 4.77893 0.587441 6.46333 0.365722C6.85108 0.318601 7.24365 0.398553 7.58208 0.59357C7.92052 0.788587 8.18654 1.08814 8.34021 1.44724L11.0601 7.51873C11.1802 7.79359 11.2299 8.09406 11.2047 8.39295C11.1795 8.69184 11.0802 8.97974 10.9158 9.2306C10.8992 9.25614 10.8811 9.28067 10.8616 9.30408L8.14556 12.5345C8.12907 12.568 8.12049 12.6048 8.12049 12.6421C8.12049 12.6794 8.12907 12.7163 8.14556 12.7497C9.13298 14.771 11.2522 16.8747 13.3018 17.8609C13.336 17.8765 13.3734 17.8839 13.411 17.8826C13.4486 17.8812 13.4853 17.8711 13.5184 17.8531L16.7011 15.1461C16.7238 15.1263 16.7479 15.1082 16.7733 15.092C17.023 14.9255 17.3104 14.8239 17.6093 14.7964C17.9082 14.769 18.2092 14.8165 18.4851 14.9347L24.5747 17.6637C24.929 17.8207 25.2233 18.0876 25.4142 18.4249C25.605 18.7623 25.6822 19.1521 25.6343 19.5367V19.5328ZM24.1016 19.342C24.1059 19.2881 24.0932 19.2342 24.0652 19.1879C24.0372 19.1417 23.9953 19.1054 23.9456 19.0842L17.8548 16.3553C17.8215 16.3424 17.7858 16.3369 17.7502 16.3391C17.7146 16.3414 17.6799 16.3513 17.6485 16.3681L14.4671 19.0752C14.4439 19.0945 14.4194 19.1126 14.3949 19.1293C14.1354 19.3024 13.8355 19.4052 13.5244 19.4278C13.2133 19.4504 12.9017 19.392 12.6199 19.2582C10.2532 18.1148 7.89419 15.7778 6.75079 13.4329C6.61631 13.1528 6.55645 12.8427 6.577 12.5326C6.59755 12.2225 6.69782 11.923 6.8681 11.6631C6.8847 11.6372 6.90323 11.6126 6.92353 11.5896L9.63829 8.3592C9.65381 8.32544 9.66184 8.28872 9.66184 8.25156C9.66184 8.21441 9.65381 8.17769 9.63829 8.14392L6.92353 2.06728C6.90561 2.01851 6.87338 1.9763 6.83105 1.94616C6.78873 1.91603 6.73829 1.89939 6.68634 1.89842H6.65669C5.34564 2.07282 4.14289 2.71844 3.27303 3.71474C2.40316 4.71104 1.92567 5.98989 1.9297 7.31248C1.9297 16.5525 9.44751 24.0703 18.6875 24.0703C20.0103 24.0743 21.2893 23.5966 22.2856 22.7265C23.282 21.8564 23.9275 20.6533 24.1016 19.342Z" fill="white"/>
</svg>
